<?xml version="1.0" encoding="UTF-8"?>
<!DOCTYPE svg PUBLIC "-//W3C//DTD SVG 1.1//EN" "http://www.w3.org/Graphics/SVG/1.1/DTD/svg11.dtd">
<svg xmlns="http://www.w3.org/2000/svg" version="1.1" width="247px" height="189px" style="shape-rendering:geometricPrecision; text-rendering:geometricPrecision; image-rendering:optimizeQuality; fill-rule:evenodd; clip-rule:evenodd" xmlns:xlink="http://www.w3.org/1999/xlink">
<g><path style="opacity:0.99" fill="#6172ed" d="M 132.5,-0.5 C 150.5,-0.5 168.5,-0.5 186.5,-0.5C 187.652,17.093 187.818,34.7597 187,52.5C 186.5,53 186,53.5 185.5,54C 175.359,53.9693 165.359,54.8027 155.5,56.5C 155.5,56.1667 155.5,55.8333 155.5,55.5C 155.5,54.5 155.5,53.5 155.5,52.5C 154.448,52.6495 153.448,52.4828 152.5,52C 151.076,47.6198 148.076,45.1198 143.5,44.5C 141.833,43.1667 140.167,41.8333 138.5,40.5C 137.5,38.1667 135.833,36.5 133.5,35.5C 132.5,35.5 131.5,35.5 130.5,35.5C 130.709,34.0783 131.209,32.745 132,31.5C 132.5,20.8385 132.667,10.1719 132.5,-0.5 Z M 152.5,15.5 C 157.179,15.3342 161.845,15.5008 166.5,16C 167.833,17 167.833,18 166.5,19C 164.866,19.4935 163.199,19.6602 161.5,19.5C 161.5,24.5 161.5,29.5 161.5,34.5C 163.977,34.0508 165.977,34.7175 167.5,36.5C 167.291,37.086 166.957,37.586 166.5,38C 161.581,38.8015 156.748,38.6349 152,37.5C 151.383,36.5509 151.549,35.7175 152.5,35C 154.134,34.5065 155.801,34.3398 157.5,34.5C 157.5,29.5 157.5,24.5 157.5,19.5C 155.801,19.6602 154.134,19.4935 152.5,19C 151.316,17.8545 151.316,16.6879 152.5,15.5 Z"/></g>
<g><path style="opacity:0.987" fill="#6272ee" d="M 192.5,-0.5 C 206.833,-0.5 221.167,-0.5 235.5,-0.5C 238.833,3.5 242.5,7.16667 246.5,10.5C 246.5,24.8333 246.5,39.1667 246.5,53.5C 228.877,54.6393 211.21,54.806 193.5,54C 193,53.5 192.5,53 192,52.5C 191.182,34.7597 191.348,17.093 192.5,-0.5 Z M 209.5,15.5 C 212.518,15.3354 215.518,15.502 218.5,16C 219.694,18.6578 218.694,19.8244 215.5,19.5C 215.197,25.2124 217.03,25.5458 221,20.5C 220.621,18.925 220.788,17.425 221.5,16C 224.429,15.2228 227.263,15.3895 230,16.5C 230.617,17.4491 230.451,18.2825 229.5,19C 226.419,20.2507 223.752,22.0841 221.5,24.5C 224.391,28.9996 227.724,32.9996 231.5,36.5C 230.307,38.3837 228.641,38.8837 226.5,38C 224.958,33.3946 222.125,29.8946 218,27.5C 217.228,27.6448 216.561,27.9781 216,28.5C 215.505,30.4727 215.338,32.4727 215.5,34.5C 218.694,34.1756 219.694,35.3422 218.5,38C 215.5,38.6667 212.5,38.6667 209.5,38C 208.179,36.4555 208.512,35.2888 210.5,34.5C 212.259,28.3764 211.593,22.7098 208.5,17.5C 208.863,16.8165 209.196,16.1499 209.5,15.5 Z"/></g>
<g><path style="opacity:0.993" fill="#05c6dd" d="M -0.5,35.5 C 23.8425,35.1669 48.1758,35.5003 72.5,36.5C 73.6561,59.7905 73.8228,83.1238 73,106.5C 72.6121,107.428 71.9454,108.095 71,108.5C 47.1667,109.818 23.3334,109.818 -0.5,108.5C -0.5,84.1667 -0.5,59.8333 -0.5,35.5 Z M 21.5,57.5 C 27.8421,57.3338 34.1754,57.5005 40.5,58C 49.2926,62.0142 50.2926,67.3476 43.5,74C 39.553,75.154 35.553,75.9873 31.5,76.5C 31.5,78.5 31.5,80.5 31.5,82.5C 32.8333,82.5 34.1667,82.5 35.5,82.5C 35.5,84.1667 35.5,85.8333 35.5,87.5C 30.8333,87.5 26.1667,87.5 21.5,87.5C 21.5,85.8333 21.5,84.1667 21.5,82.5C 22.8333,82.5 24.1667,82.5 25.5,82.5C 25.5,75.8333 25.5,69.1667 25.5,62.5C 24.1667,62.5 22.8333,62.5 21.5,62.5C 21.5,60.8333 21.5,59.1667 21.5,57.5 Z"/></g>
<g><path style="opacity:0.992" fill="#05c5dd" d="M 130.5,35.5 C 131.5,35.5 132.5,35.5 133.5,35.5C 134.167,38.1667 135.833,39.8333 138.5,40.5C 140.167,41.8333 141.833,43.1667 143.5,44.5C 146.848,48.8471 150.848,52.5137 155.5,55.5C 155.5,55.8333 155.5,56.1667 155.5,56.5C 154.5,56.5 153.5,56.5 152.5,56.5C 152.5,73.8333 152.5,91.1667 152.5,108.5C 129.197,109.636 105.864,109.803 82.5,109C 80.1517,108.89 78.6517,107.723 78,105.5C 77.0212,82.4118 77.3546,59.4118 79,36.5C 96.0896,35.5081 113.256,35.1747 130.5,35.5 Z M 112.5,57.5 C 114.924,57.1924 117.257,57.5258 119.5,58.5C 123.31,68.426 127.31,78.0926 131.5,87.5C 127.167,87.5 122.833,87.5 118.5,87.5C 118.5,85.8333 118.5,84.1667 118.5,82.5C 121.205,82.6198 121.872,81.6198 120.5,79.5C 116.833,78.1667 113.167,78.1667 109.5,79.5C 108.128,81.6198 108.795,82.6198 111.5,82.5C 111.5,84.1667 111.5,85.8333 111.5,87.5C 108.167,87.5 104.833,87.5 101.5,87.5C 105.524,77.7743 109.191,67.7743 112.5,57.5 Z"/></g>
<g><path style="opacity:1" fill="#3a98e5" d="M 133.5,35.5 C 135.833,36.5 137.5,38.1667 138.5,40.5C 135.833,39.8333 134.167,38.1667 133.5,35.5 Z"/></g>
<g><path style="opacity:1" fill="#5083ea" d="M 143.5,44.5 C 148.076,45.1198 151.076,47.6198 152.5,52C 153.448,52.4828 154.448,52.6495 155.5,52.5C 155.5,53.5 155.5,54.5 155.5,55.5C 150.848,52.5137 146.848,48.8471 143.5,44.5 Z"/></g>
<g><path style="opacity:0.803" fill="#04c6dc" d="M 31.5,63.5 C 34.1873,63.3359 36.854,63.5026 39.5,64C 42.1667,66 42.1667,68 39.5,70C 36.854,70.4974 34.1873,70.6641 31.5,70.5C 31.5,68.1667 31.5,65.8333 31.5,63.5 Z"/></g>
<g><path style="opacity:0.779" fill="#05c6dc" d="M 114.5,65.5 C 116.19,67.5038 117.524,69.8371 118.5,72.5C 116.235,73.6474 113.902,73.8141 111.5,73C 112.601,70.5279 113.601,68.0279 114.5,65.5 Z"/></g>
<g><path style="opacity:0.993" fill="#05c6dd" d="M 72.5,188.5 C 48.1667,188.5 23.8333,188.5 -0.5,188.5C -0.5,164.167 -0.5,139.833 -0.5,115.5C 0.473444,115.013 1.47344,114.513 2.5,114C 13.6667,113.833 24.8333,113.667 36,113.5C 71.6337,103.555 84.1337,116.389 73.5,152C 73.4805,164.21 73.1472,176.377 72.5,188.5 Z M 24.5,137.5 C 31.8338,138.798 39.1671,138.798 46.5,137.5C 48.0265,140.744 49.3598,144.077 50.5,147.5C 49.8333,147.833 49.1667,148.167 48.5,148.5C 46.7099,147.214 45.0432,145.714 43.5,144C 42.2068,143.51 40.8734,143.343 39.5,143.5C 39.5,150.167 39.5,156.833 39.5,163.5C 40.5,163.5 41.5,163.5 42.5,163.5C 42.5,165.167 42.5,166.833 42.5,168.5C 37.8333,168.5 33.1667,168.5 28.5,168.5C 28.5,166.833 28.5,165.167 28.5,163.5C 29.8333,163.5 31.1667,163.5 32.5,163.5C 32.5,156.833 32.5,150.167 32.5,143.5C 28.4743,143.677 25.641,145.677 24,149.5C 22.8419,149.002 22.0085,148.169 21.5,147C 22.6072,143.846 23.6072,140.68 24.5,137.5 Z"/></g>
<g><path style="opacity:0.99" fill="#05c6dd" d="M 152.5,188.5 C 128.167,188.5 103.833,188.5 79.5,188.5C 79.2172,187.711 78.7172,187.044 78,186.5C 77.3333,163.5 77.3333,140.5 78,117.5C 79.214,115.951 80.714,114.785 82.5,114C 104.833,113.333 127.167,113.333 149.5,114C 150.416,114.374 151.25,114.874 152,115.5C 152.5,139.831 152.667,164.164 152.5,188.5 Z M 100.5,138.5 C 105.167,138.5 109.833,138.5 114.5,138.5C 114.5,140.167 114.5,141.833 114.5,143.5C 113.167,143.5 111.833,143.5 110.5,143.5C 110.5,145.833 110.5,148.167 110.5,150.5C 114.5,150.5 118.5,150.5 122.5,150.5C 122.5,148.167 122.5,145.833 122.5,143.5C 121.167,143.5 119.833,143.5 118.5,143.5C 118.5,141.833 118.5,140.167 118.5,138.5C 123.167,138.5 127.833,138.5 132.5,138.5C 132.5,140.167 132.5,141.833 132.5,143.5C 131.178,143.33 130.011,143.663 129,144.5C 128.333,150.5 128.333,156.5 129,162.5C 130.011,163.337 131.178,163.67 132.5,163.5C 132.5,165.167 132.5,166.833 132.5,168.5C 127.833,168.5 123.167,168.5 118.5,168.5C 118.5,166.833 118.5,165.167 118.5,163.5C 119.833,163.5 121.167,163.5 122.5,163.5C 122.5,160.833 122.5,158.167 122.5,155.5C 118.5,155.5 114.5,155.5 110.5,155.5C 110.5,158.167 110.5,160.833 110.5,163.5C 111.833,163.5 113.167,163.5 114.5,163.5C 114.5,165.167 114.5,166.833 114.5,168.5C 109.833,168.5 105.167,168.5 100.5,168.5C 100.5,166.833 100.5,165.167 100.5,163.5C 101.5,163.5 102.5,163.5 103.5,163.5C 103.5,156.833 103.5,150.167 103.5,143.5C 102.5,143.5 101.5,143.5 100.5,143.5C 100.5,141.833 100.5,140.167 100.5,138.5 Z"/></g>
</svg>
