<?xml version="1.0" encoding="UTF-8"?>
<!DOCTYPE svg PUBLIC "-//W3C//DTD SVG 1.1//EN" "http://www.w3.org/Graphics/SVG/1.1/DTD/svg11.dtd">
<svg xmlns="http://www.w3.org/2000/svg" version="1.1" width="16px" height="16px" style="shape-rendering:geometricPrecision; text-rendering:geometricPrecision; image-rendering:optimizeQuality; fill-rule:evenodd; clip-rule:evenodd" xmlns:xlink="http://www.w3.org/1999/xlink">
<g><path style="opacity:0.343" fill="#000000" d="M 15.5,1.5 C 15.5,2.5 15.5,3.5 15.5,4.5C 14.1147,5.61381 12.6147,6.61381 11,7.5C 10.2881,9.84737 9.12143,11.8474 7.5,13.5C 6.83333,12.1667 6.16667,10.8333 5.5,9.5C 3.21739,10.85 1.21739,10.5167 -0.5,8.5C -0.5,7.5 -0.5,6.5 -0.5,5.5C 0.873441,5.65668 2.20677,5.49001 3.5,5C 2.02674,4.29044 1.36007,3.12377 1.5,1.5C 3.93724,1.75628 6.27058,2.42294 8.5,3.5C 10.6179,2.05408 12.9512,1.38742 15.5,1.5 Z M 7.5,6.5 C 8.07683,5.22671 8.7435,5.22671 9.5,6.5C 9.03017,7.46295 8.3635,7.46295 7.5,6.5 Z"/></g>
</svg>
