<?xml version="1.0" standalone="no"?>
<!DOCTYPE svg PUBLIC "-//W3C//DTD SVG 20010904//EN"
 "http://www.w3.org/TR/2001/REC-SVG-20010904/DTD/svg10.dtd">
<svg version="1.0" xmlns="http://www.w3.org/2000/svg"
 width="16.000000pt" height="16.000000pt" viewBox="0 0 16.000000 16.000000"
 preserveAspectRatio="xMidYMid meet">

<g transform="translate(0.000000,16.000000) scale(0.100000,-0.100000)"
fill="#000000" stroke="none">
<path d="M65 120 c-3 -5 -15 -10 -26 -10 -13 0 -19 -7 -19 -22 0 -19 2 -20 11
-8 8 11 12 12 16 3 3 -10 9 -9 21 3 14 15 17 15 28 0 9 -13 13 -14 17 -4 4 10
8 10 16 -2 9 -12 11 -11 11 8 0 15 -6 22 -19 22 -11 0 -23 5 -26 10 -3 6 -10
10 -15 10 -5 0 -12 -4 -15 -10z m20 -10 c-3 -5 -11 -10 -16 -10 -6 0 -7 5 -4
10 3 6 11 10 16 10 6 0 7 -4 4 -10z"/>
<path d="M17 58 c-22 -12 -22 -48 1 -50 101 -10 142 -3 142 22 0 11 -8 23 -17
28 -24 12 -105 12 -126 0z m13 -24 c0 -8 -4 -12 -10 -9 -5 3 -10 10 -10 16 0
5 5 9 10 9 6 0 10 -7 10 -16z m120 7 c0 -6 -4 -13 -10 -16 -5 -3 -10 1 -10 9
0 9 5 16 10 16 6 0 10 -4 10 -9z"/>
</g>
</svg>
