<?xml version="1.0" standalone="no"?>
<!DOCTYPE svg PUBLIC "-//W3C//DTD SVG 20010904//EN"
 "http://www.w3.org/TR/2001/REC-SVG-20010904/DTD/svg10.dtd">
<svg version="1.0" xmlns="http://www.w3.org/2000/svg"
 width="24.000000pt" height="24.000000pt" viewBox="0 0 24.000000 24.000000"
 preserveAspectRatio="xMidYMid meet">

<g transform="translate(0.000000,24.000000) scale(0.100000,-0.100000)"
fill="#000000" stroke="none">
<path d="M170 190 c-8 -5 -29 -7 -46 -4 -32 6 -54 -9 -33 -22 17 -10 -12 -24
-38 -17 -30 7 -29 -8 1 -36 15 -14 26 -19 31 -12 11 19 25 12 25 -14 0 -35 23
-22 39 21 7 19 24 40 37 46 13 6 24 19 24 30 0 20 -17 23 -40 8z m30 -8 c0 -5
-10 -14 -22 -21 -13 -6 -31 -28 -40 -49 -16 -33 -17 -34 -12 -8 4 24 2 27 -13
21 -39 -16 -50 -16 -64 1 -12 15 -12 16 6 11 12 -4 42 5 75 23 59 31 70 35 70
22z m-70 -6 c0 -11 -19 -15 -25 -6 -3 5 1 10 9 10 9 0 16 -2 16 -4z"/>
<path d="M72 33 c27 -2 69 -2 96 0 26 2 4 3 -48 3 -52 0 -74 -1 -48 -3z"/>
</g>
</svg>
