<?xml version="1.0" standalone="no"?>
<!DOCTYPE svg PUBLIC "-//W3C//DTD SVG 20010904//EN"
 "http://www.w3.org/TR/2001/REC-SVG-20010904/DTD/svg10.dtd">
<svg version="1.0" xmlns="http://www.w3.org/2000/svg"
 width="24.000000pt" height="24.000000pt" viewBox="0 0 24.000000 24.000000"
 preserveAspectRatio="xMidYMid meet">

<g transform="translate(0.000000,24.000000) scale(0.100000,-0.100000)"
fill="#000000" stroke="none">
<path d="M107 214 c-4 -4 -7 -20 -7 -36 0 -22 -9 -33 -40 -53 -39 -25 -56 -53
-24 -41 52 20 64 19 64 -7 0 -14 -4 -29 -10 -32 -20 -13 -9 -20 30 -20 39 0
50 7 30 20 -5 3 -10 18 -10 32 0 26 12 27 64 7 32 -12 15 16 -23 41 -31 19
-40 32 -43 56 -3 32 -17 46 -31 33z"/>
</g>
</svg>
