<?xml version="1.0" standalone="no"?>
<!DOCTYPE svg PUBLIC "-//W3C//DTD SVG 20010904//EN"
 "http://www.w3.org/TR/2001/REC-SVG-20010904/DTD/svg10.dtd">
<svg version="1.0" xmlns="http://www.w3.org/2000/svg"
 width="24.000000pt" height="24.000000pt" viewBox="0 0 24.000000 24.000000"
 preserveAspectRatio="xMidYMid meet">

<g transform="translate(0.000000,24.000000) scale(0.100000,-0.100000)"
fill="#9c9ca3" stroke="none">
<path d="M176 211 l-28 -29 -56 19 c-90 31 -113 9 -37 -35 25 -15 45 -30 45
-35 0 -16 -47 -51 -62 -46 -8 3 -20 -1 -27 -8 -9 -12 -7 -16 14 -21 15 -4 27
-16 31 -31 5 -21 9 -23 21 -14 7 7 11 19 8 27 -5 15 30 62 46 62 5 0 20 -20
35 -45 44 -75 66 -53 35 36 l-19 56 30 31 c20 19 29 36 25 46 -9 24 -30 19
-61 -13z"/>
</g>
</svg>
