<?xml version="1.0" encoding="UTF-8"?>
<!DOCTYPE svg PUBLIC "-//W3C//DTD SVG 1.1//EN" "http://www.w3.org/Graphics/SVG/1.1/DTD/svg11.dtd">
<svg xmlns="http://www.w3.org/2000/svg" version="1.1" width="24px" height="24px" style="shape-rendering:geometricPrecision; text-rendering:geometricPrecision; image-rendering:optimizeQuality; fill-rule:evenodd; clip-rule:evenodd" xmlns:xlink="http://www.w3.org/1999/xlink">
<g><path style="opacity:0.779" fill="#000000" d="M 18.5,-0.5 C 20.1667,-0.5 21.8333,-0.5 23.5,-0.5C 23.5,1.16667 23.5,2.83333 23.5,4.5C 21.5212,5.81212 19.8545,7.47878 18.5,9.5C 19.74,13.0558 21.0733,16.5558 22.5,20C 21.2899,21.0391 20.2899,22.2058 19.5,23.5C 19.1667,23.5 18.8333,23.5 18.5,23.5C 16.7451,20.3197 14.7451,17.3197 12.5,14.5C 9.27222,16.6014 7.60555,19.6014 7.5,23.5C 6.83333,23.5 6.16667,23.5 5.5,23.5C 5.16667,19.8333 3.16667,17.8333 -0.5,17.5C -0.5,16.8333 -0.5,16.1667 -0.5,15.5C 3.39864,15.3944 6.39864,13.7278 8.5,10.5C 5.68028,8.25487 2.68028,6.25487 -0.5,4.5C -0.5,4.16667 -0.5,3.83333 -0.5,3.5C 0.794229,2.7101 1.9609,1.7101 3,0.5C 6.44421,1.92669 9.94421,3.26002 13.5,4.5C 15.5212,3.14548 17.1879,1.47881 18.5,-0.5 Z"/></g>
</svg>
