<?xml version="1.0" standalone="no"?>
<!DOCTYPE svg PUBLIC "-//W3C//DTD SVG 20010904//EN"
 "http://www.w3.org/TR/2001/REC-SVG-20010904/DTD/svg10.dtd">
<svg version="1.0" xmlns="http://www.w3.org/2000/svg"
 width="500.000000pt" height="500.000000pt" viewBox="0 0 500.000000 500.000000"
 preserveAspectRatio="xMidYMid meet">

<g transform="translate(0.000000,500.000000) scale(0.100000,-0.100000)"
fill="#000000" stroke="none">
<path d="M1556 3559 c-14 -47 -14 -64 4 -87 22 -27 23 -23 -43 -132 -21 -36
-51 -74 -64 -86 -21 -17 -25 -27 -21 -55 5 -32 0 -40 -83 -126 -107 -113 -142
-163 -175 -250 -69 -182 -26 -375 112 -502 116 -107 278 -160 516 -168 235 -9
392 17 793 132 389 111 578 143 770 131 320 -21 473 -127 476 -331 1 -93 17
-57 18 40 2 159 -107 270 -314 322 -55 14 -112 17 -270 17 -224 0 -306 -13
-595 -94 -493 -137 -579 -154 -815 -154 -141 -1 -197 3 -260 18 -352 81 -496
351 -343 638 32 60 227 269 276 296 19 11 33 9 88 -8 103 -31 138 -26 196 28
27 24 43 78 50 160 3 30 8 36 42 47 68 24 92 -8 33 -43 -30 -17 -35 -27 -46
-83 -7 -35 -14 -71 -17 -80 -6 -20 31 -37 100 -45 l54 -6 16 70 c20 90 20 94
-5 126 -11 15 -18 33 -15 41 5 14 47 17 57 3 3 -4 59 -15 125 -23 65 -8 134
-17 152 -20 29 -5 32 -3 32 18 0 20 -7 26 -42 35 -23 6 -46 9 -50 6 -5 -3 -52
5 -106 17 -74 17 -91 24 -72 29 l25 6 -25 7 c-13 3 -27 3 -30 -1 -3 -5 -15 -3
-27 3 -17 9 -20 14 -11 23 15 15 11 19 -36 27 -36 7 -38 6 -31 -14 7 -25 -2
-27 -31 -7 -12 8 -57 29 -100 47 -68 27 -95 33 -191 37 -90 4 -114 2 -117 -9z
m257 -26 c63 -20 55 -27 -13 -11 -52 12 -53 12 -74 -15 -21 -26 -22 -26 -34
-7 -9 15 -23 20 -55 20 -24 0 -48 -5 -55 -12 -9 -9 -12 -6 -12 14 0 17 6 28
18 31 32 8 177 -5 225 -20z m-129 -160 c-10 -22 -13 -49 -10 -67 11 -54 38
-116 51 -116 10 0 8 13 -6 51 -22 56 -15 107 20 150 l18 22 39 -19 c37 -18 39
-21 42 -71 4 -71 -18 -115 -72 -143 l-42 -23 -75 25 c-71 24 -74 26 -71 54 5
44 82 174 103 174 17 0 17 -2 3 -37z m373 -77 c1 -1 -4 -28 -11 -61 -10 -45
-15 -55 -21 -40 -4 11 -12 33 -17 48 -6 15 -26 40 -45 56 l-34 28 63 -15 c35
-8 64 -16 65 -16z"/>
<path d="M2168 3433 c7 -3 16 -2 19 1 4 3 -2 6 -13 5 -11 0 -14 -3 -6 -6z"/>
<path d="M2238 3413 c7 -3 16 -2 19 1 4 3 -2 6 -13 5 -11 0 -14 -3 -6 -6z"/>
<path d="M2278 3403 c7 -3 16 -2 19 1 4 3 -2 6 -13 5 -11 0 -14 -3 -6 -6z"/>
<path d="M2570 3361 c-7 -15 -6 -24 6 -36 19 -18 33 -16 48 7 7 12 6 21 -3 32
-18 22 -38 20 -51 -3z"/>
<path d="M2705 3336 c-23 -14 -47 -36 -54 -50 -11 -20 -18 -23 -32 -16 -27 15
-96 12 -130 -5 -16 -9 -38 -30 -49 -47 -11 -18 -29 -38 -42 -45 -20 -10 -1
-12 119 -13 l143 0 -6 29 c-16 76 51 154 131 154 84 0 139 -63 131 -149 l-4
-51 41 -12 c23 -7 59 -24 80 -37 26 -17 37 -20 37 -10 0 19 -37 64 -59 71 -13
4 -21 19 -25 48 -21 130 -169 200 -281 133z"/>
<path d="M2300 3225 c0 -8 7 -15 15 -15 8 0 15 7 15 15 0 8 -7 15 -15 15 -8 0
-15 -7 -15 -15z"/>
<path d="M3105 3080 c-3 -6 1 -13 10 -16 19 -8 30 0 20 15 -8 14 -22 14 -30 1z"/>
<path d="M1414 2796 c-3 -8 -4 -25 -2 -38 2 -19 9 -23 38 -23 33 0 35 2 35 35
0 32 -3 35 -33 38 -21 2 -34 -2 -38 -12z"/>
<path d="M1247 2755 c-17 -42 -18 -127 -3 -186 40 -158 165 -258 380 -306 89
-19 349 -22 461 -4 121 19 115 15 99 62 -33 96 37 178 141 167 33 -4 45 -2 45
7 0 20 49 74 83 92 70 36 182 10 223 -52 14 -21 13 -25 -10 -49 -18 -17 -26
-36 -26 -58 l0 -33 165 40 c107 26 165 45 165 53 0 7 -11 24 -25 37 -36 37
-97 35 -136 -5 -29 -28 -32 -29 -58 -16 -15 8 -38 31 -52 50 -57 84 -185 111
-278 61 -25 -14 -55 -39 -66 -55 -18 -26 -26 -30 -68 -30 -42 0 -51 4 -79 36
-46 52 -96 74 -168 74 -33 0 -60 4 -60 10 0 29 -139 56 -155 30 -3 -5 -24 3
-46 20 -98 70 -220 60 -300 -27 -29 -32 -44 -42 -47 -32 -3 8 -26 35 -52 60
-49 48 -124 79 -133 54z m477 -66 c122 -84 90 -270 -54 -309 -50 -14 -107 0
-150 36 -93 79 -79 226 27 284 51 27 128 23 177 -11z"/>
<path d="M2536 2544 c-19 -18 -20 -28 -6 -55 21 -39 90 -16 90 30 0 16 -30 41
-50 41 -10 0 -26 -7 -34 -16z"/>
<path d="M3746 2534 c-8 -21 11 -44 35 -44 19 0 35 33 24 50 -10 16 -52 12
-59 -6z"/>
<path d="M3550 2504 l-35 -16 68 -19 c84 -24 139 -51 195 -96 24 -20 46 -33
49 -29 15 15 -14 72 -46 88 -18 9 -42 26 -53 38 -45 48 -116 61 -178 34z"/>
<path d="M3119 2375 c-107 -17 -213 -44 -404 -102 -82 -26 -206 -61 -275 -79
-78 -21 -106 -32 -75 -28 88 10 194 34 420 94 313 84 372 94 560 95 138 0 170
-3 231 -22 79 -25 152 -81 184 -142 10 -20 19 -31 20 -25 0 20 -63 106 -100
136 -98 78 -333 108 -561 73z"/>
<path d="M2278 2153 c7 -3 16 -2 19 1 4 3 -2 6 -13 5 -11 0 -14 -3 -6 -6z"/>
<path d="M3494 2033 l-52 -4 -32 -167 c-17 -92 -34 -176 -37 -186 -5 -18 -1
-19 53 -12 32 4 60 9 62 11 3 2 13 46 23 97 25 120 28 128 45 128 18 0 18 -37
-1 -115 -19 -78 -19 -81 5 -105 24 -24 77 -26 108 -4 22 15 22 17 7 34 -15 16
-15 24 2 103 14 70 15 88 4 101 -18 22 -74 30 -112 17 -30 -10 -31 -10 -25 12
13 48 18 97 10 95 -5 -1 -32 -3 -60 -5z"/>
<path d="M1412 1989 c-65 -32 -102 -99 -102 -183 0 -90 59 -146 153 -146 84 0
146 38 147 89 0 18 -4 22 -17 16 -10 -4 -41 -10 -70 -12 -47 -5 -52 -3 -68 21
-21 31 -15 99 13 155 34 68 77 66 75 -4 -1 -30 2 -35 22 -35 32 0 75 37 75 65
0 38 -35 55 -115 55 -51 0 -81 -6 -113 -21z"/>
<path d="M2352 2001 c-11 -7 -11 -16 2 -55 9 -26 16 -71 16 -100 0 -29 3 -81
6 -115 l7 -61 66 0 67 0 34 68 35 67 3 -45 c5 -91 5 -91 72 -88 l60 3 75 158
c41 87 75 160 75 162 0 3 -13 5 -29 5 -25 0 -31 -7 -59 -67 -17 -38 -43 -95
-59 -128 l-28 -60 -6 55 c-4 30 -7 88 -8 128 l-1 72 -38 0 -37 0 -54 -125
c-30 -69 -56 -125 -58 -125 -1 0 -2 46 -1 103 4 133 -9 157 -80 157 -26 0 -53
-4 -60 -9z"/>
<path d="M1733 1924 c-21 -7 -48 -26 -60 -41 -45 -56 -49 -179 -6 -211 12 -9
33 -11 63 -8 45 6 59 7 136 3 23 -1 49 5 58 12 15 13 15 15 0 32 -15 17 -15
26 3 121 l19 103 -87 1 c-49 1 -105 -5 -126 -12z m87 -28 c0 -32 -33 -182 -42
-193 -30 -36 -42 5 -28 93 6 38 18 79 26 92 16 24 44 30 44 8z"/>
<path d="M2030 1931 l-35 -6 -24 -128 c-13 -70 -21 -131 -18 -134 3 -3 31 -2
61 1 l54 7 12 72 c17 107 32 151 54 155 16 3 18 -1 14 -30 -3 -18 -8 -41 -13
-50 -6 -15 -2 -18 28 -18 26 0 41 7 56 26 58 74 -28 152 -103 93 l-26 -20 0
20 c0 22 -3 22 -60 12z"/>
<path d="M2926 1929 c-64 -18 -106 -84 -106 -169 0 -41 5 -56 25 -75 28 -29
71 -33 114 -10 26 13 30 13 41 0 16 -19 70 -19 97 0 19 13 24 13 50 0 65 -34
175 -8 202 49 19 39 6 66 -48 108 -52 39 -58 50 -35 72 22 22 44 4 44 -35 0
-31 16 -37 51 -19 12 7 19 21 19 41 0 37 -35 53 -99 45 -127 -17 -161 -111
-66 -178 47 -33 57 -61 28 -72 -22 -9 -43 18 -36 45 5 18 2 20 -33 17 -28 -2
-42 -9 -50 -26 -10 -19 -13 -20 -23 -8 -12 14 -7 52 24 201 4 19 -1 20 -83 21
-48 0 -100 -3 -116 -7z m74 -36 c0 -27 -28 -182 -35 -193 -3 -6 -13 -10 -21
-10 -26 0 -12 171 18 207 15 19 38 16 38 -4z"/>
</g>
</svg>
