<?xml version="1.0" standalone="no"?>
<!DOCTYPE svg PUBLIC "-//W3C//DTD SVG 20010904//EN"
 "http://www.w3.org/TR/2001/REC-SVG-20010904/DTD/svg10.dtd">
<svg version="1.0" xmlns="http://www.w3.org/2000/svg"
 width="277.000000pt" height="277.000000pt" viewBox="0 0 277.000000 277.000000"
 preserveAspectRatio="xMidYMid meet">

<g transform="translate(0.000000,277.000000) scale(0.100000,-0.100000)"
fill="#000000" stroke="none">
<path d="M439 2433 c-9 -22 -7 -34 5 -56 9 -16 16 -33 16 -39 0 -20 -102 -179
-125 -194 -19 -13 -22 -21 -18 -54 5 -38 3 -42 -89 -137 -111 -115 -139 -157
-173 -257 -76 -227 21 -453 242 -565 94 -47 218 -72 385 -78 249 -9 377 12
787 128 433 123 620 152 832 130 270 -28 404 -123 429 -303 l9 -63 -3 80 c-3
128 -57 208 -179 266 -110 52 -190 64 -407 63 -229 0 -296 -12 -680 -119 -398
-111 -586 -142 -790 -132 -327 16 -526 132 -586 342 -32 112 -1 264 76 368 45
61 217 235 249 252 25 12 35 12 90 -6 81 -25 125 -24 168 2 45 28 63 67 70
151 3 38 11 71 17 72 6 2 25 8 43 13 25 9 36 8 50 -3 17 -13 17 -15 -3 -32
-12 -9 -29 -21 -38 -27 -9 -6 -22 -40 -31 -85 -19 -89 -15 -95 72 -106 42 -5
57 -3 64 7 12 19 11 32 -1 24 -5 -3 -14 12 -20 34 -6 24 -24 52 -46 71 -20 17
-34 33 -31 36 2 3 32 -1 66 -9 65 -15 73 -11 41 18 -21 19 -27 50 -11 59 5 4
22 1 37 -4 19 -8 286 -49 322 -50 1 0 2 9 2 19 0 20 -34 33 -95 36 -65 4 -196
38 -191 50 2 7 -1 12 -7 12 -39 -1 -48 4 -42 22 4 14 0 20 -17 25 -36 9 -48 7
-48 -9 0 -8 -9 -15 -20 -15 -11 0 -20 4 -20 8 0 7 -39 24 -115 51 -5 2 -1 -4
10 -14 20 -16 20 -16 -5 -11 -14 4 -43 9 -66 12 -36 6 -42 3 -59 -22 l-18 -28
-9 23 c-8 22 -13 23 -68 19 -57 -4 -60 -3 -60 18 0 15 7 24 23 27 l22 4 -23 2
c-16 1 -26 -7 -33 -26z m135 -150 c-13 -42 -8 -114 10 -157 23 -52 28 -41 10
22 -15 51 -15 53 10 108 27 59 25 59 93 33 28 -10 37 -46 29 -107 -7 -57 -30
-89 -79 -115 -35 -18 -39 -18 -94 -2 -88 25 -103 37 -93 77 6 30 56 124 82
156 6 6 17 12 25 12 12 0 13 -6 7 -27z"/>
<path d="M538 2453 c23 -2 59 -2 80 0 20 2 1 4 -43 4 -44 0 -61 -2 -37 -4z"/>
<path d="M1460 2255 c-11 -13 -11 -18 2 -31 20 -20 50 -7 46 20 -4 26 -30 32
-48 11z"/>
<path d="M1675 2241 c93 -13 143 -73 131 -157 -4 -33 -2 -44 8 -44 7 0 40 -13
72 -30 32 -16 60 -28 61 -26 7 7 -39 55 -57 61 -13 4 -20 15 -20 33 -1 44 -35
107 -75 138 -31 24 -48 29 -104 30 -62 2 -63 2 -16 -5z"/>
<path d="M1595 2230 c-3 -6 1 -7 9 -4 18 7 21 14 7 14 -6 0 -13 -4 -16 -10z"/>
<path d="M1547 2191 c-23 -28 -27 -29 -89 -24 -62 5 -66 4 -101 -26 -20 -18
-39 -41 -42 -52 -4 -10 -14 -19 -22 -19 -9 0 -14 -2 -11 -5 3 -3 62 -8 132
-11 l127 -6 -6 39 c-5 29 -1 49 18 86 13 26 23 47 22 47 -2 0 -14 -13 -28 -29z"/>
<path d="M1190 2120 c0 -5 5 -10 10 -10 6 0 10 5 10 10 0 6 -4 10 -10 10 -5 0
-10 -4 -10 -10z"/>
<path d="M1990 1970 c0 -5 7 -10 15 -10 8 0 15 5 15 10 0 6 -7 10 -15 10 -8 0
-15 -4 -15 -10z"/>
<path d="M301 1682 c-14 -27 8 -55 40 -50 19 2 24 9 24 33 0 25 -4 31 -27 33
-18 2 -30 -3 -37 -16z"/>
<path d="M124 1593 c-24 -194 107 -359 333 -418 139 -37 343 -42 523 -14 103
16 100 13 84 58 -16 48 -4 98 33 135 31 32 61 40 113 33 35 -4 39 -2 51 25 33
79 160 116 244 70 11 -5 33 -24 49 -41 l30 -31 -26 -27 c-30 -32 -43 -69 -29
-78 16 -9 321 68 321 82 0 23 -52 53 -92 53 -31 0 -45 -6 -65 -29 -23 -26 -28
-28 -54 -17 -15 6 -41 30 -58 53 -78 108 -255 113 -338 8 -25 -31 -33 -35 -74
-35 -41 0 -50 4 -73 34 -35 47 -99 76 -168 76 -42 0 -59 5 -73 20 -26 28 -76
40 -123 28 -35 -9 -43 -6 -92 24 -45 28 -62 33 -114 33 -70 -1 -129 -27 -169
-75 -14 -16 -30 -30 -34 -30 -5 0 -17 14 -27 31 -23 38 -101 89 -137 89 -26 0
-28 -3 -35 -57z m453 12 c50 -21 72 -42 94 -90 82 -179 -156 -339 -287 -193
-34 37 -44 63 -44 119 0 129 121 212 237 164z"/>
<path d="M1418 1425 c-14 -30 3 -55 37 -55 12 0 28 7 35 15 20 24 -3 65 -35
65 -17 0 -29 -8 -37 -25z"/>
<path d="M2634 1425 c-4 -9 -2 -21 4 -27 16 -16 47 -5 47 17 0 26 -42 34 -51
10z"/>
<path d="M2443 1400 c-13 -5 -23 -11 -23 -14 0 -3 26 -12 57 -21 74 -22 143
-57 188 -96 20 -18 39 -29 42 -25 15 14 -14 62 -47 78 -18 10 -38 24 -42 33
-24 41 -122 66 -175 45z"/>
<path d="M1999 1265 c-109 -17 -211 -43 -429 -109 -96 -30 -191 -57 -210 -61
-19 -5 -29 -10 -23 -12 17 -6 112 16 335 77 291 80 377 94 563 94 177 -1 250
-16 323 -69 l37 -27 -31 30 c-38 35 -119 67 -206 82 -85 13 -254 11 -359 -5z"/>
<path d="M1288 1073 c6 -2 18 -2 25 0 6 3 1 5 -13 5 -14 0 -19 -2 -12 -5z"/>
<path d="M2378 923 c-27 -2 -48 -5 -48 -7 0 -1 -16 -81 -35 -176 -19 -95 -35
-175 -35 -177 0 -5 64 -1 89 6 22 6 26 17 42 98 18 94 32 133 50 133 20 0 21
-33 4 -115 -17 -82 -17 -86 0 -105 21 -23 72 -27 99 -7 15 11 16 17 7 34 -8
16 -7 41 6 103 l18 82 -24 19 c-26 21 -66 24 -106 9 -25 -10 -27 -9 -22 12 14
59 18 98 11 96 -5 -1 -30 -3 -56 -5z"/>
<path d="M360 901 c-104 -22 -160 -93 -160 -201 0 -94 47 -140 142 -140 89 0
148 33 148 83 0 14 -4 17 -17 12 -10 -4 -39 -10 -64 -12 -83 -9 -109 46 -73
154 19 56 40 83 64 83 21 0 30 -19 30 -61 0 -24 4 -29 25 -29 52 0 88 77 48
99 -27 14 -103 20 -143 12z"/>
<path d="M1260 901 c-27 -8 -28 -12 -11 -96 5 -27 10 -78 10 -111 1 -34 4 -76
7 -93 6 -31 7 -31 71 -31 l65 0 26 60 c15 33 31 59 37 57 5 -2 11 -29 13 -60
l3 -57 60 0 59 0 69 145 c87 182 88 185 62 185 -25 0 -37 -18 -92 -140 -63
-141 -66 -141 -73 -14 -10 157 -8 149 -37 152 -33 4 -36 -1 -94 -135 -26 -62
-51 -113 -56 -113 -4 0 -7 47 -6 105 2 93 0 106 -18 123 -24 23 -61 32 -95 23z"/>
<path d="M626 819 c-46 -13 -83 -56 -96 -111 -29 -117 25 -173 129 -137 24 9
35 9 44 0 15 -15 69 -14 91 2 15 11 16 17 6 33 -10 16 -9 39 7 119 l19 100
-86 1 c-47 1 -98 -3 -114 -7z m78 -18 c7 -11 -22 -179 -35 -203 -14 -25 -36
-22 -43 5 -9 38 15 168 36 195 12 14 34 16 42 3z"/>
<path d="M910 823 c-25 -4 -27 -11 -52 -135 l-25 -131 54 6 c30 3 57 8 60 10
2 3 11 45 18 93 16 100 31 136 54 132 17 -4 21 -49 7 -80 -7 -15 -3 -18 23
-18 39 0 71 31 71 69 0 57 -73 80 -124 40 l-26 -20 0 20 c0 21 -6 23 -60 14z"/>
<path d="M1806 819 c-63 -18 -96 -72 -96 -159 0 -47 4 -64 20 -80 23 -23 75
-26 115 -8 19 9 28 9 37 0 16 -16 70 -15 92 1 15 11 16 18 8 34 -11 19 -2 92
22 198 5 19 0 20 -82 21 -48 1 -100 -2 -116 -7z m79 -19 c9 -15 -25 -193 -40
-209 -7 -7 -19 -10 -25 -6 -17 10 -8 138 13 188 15 35 39 48 52 27z"/>
<path d="M2120 819 c-69 -28 -93 -99 -47 -138 12 -10 35 -30 51 -43 35 -29 30
-58 -9 -58 -21 0 -25 5 -25 30 0 27 -3 30 -29 30 -19 0 -35 -8 -45 -22 -24
-34 0 -51 76 -55 70 -4 100 7 131 49 28 37 16 71 -37 107 -49 34 -62 57 -45
77 18 22 48 17 55 -10 3 -14 3 -30 -1 -35 -9 -15 38 -14 53 1 18 18 14 56 -7
68 -24 13 -88 12 -121 -1z"/>
</g>
</svg>
